<svg xmlns="http://www.w3.org/2000/svg" xmlns:svg="http://www.w3.org/2000/svg" id="svg1" width="1024" height="1024" version="1.1" viewBox="0 0 1024 1024"><g id="g1"><g id="g6562" transform="matrix(1.9395729,0,0,1.9060897,-478.95324,-459.45465)"><path style="fill:#f4f4f3" id="path6562" d="M 480.34596,663.93474 C 338.34581,634.1007 313.81009,437.06259 443.93524,371.53261 c 140.16157,-70.58423 282.3767,95.3305 194.20556,226.56918 -23.40995,34.84463 -31.6865,37.65602 -51.87324,17.62035 -18.08767,-17.9523 -18.72601,-21.45258 -6.23326,-34.17944 81.29586,-82.81934 -25.6225,-216.87715 -120.70539,-151.34444 -74.25377,51.17694 -56.23226,144.07982 35.26839,181.81244 22.13881,9.1295 27.06737,13.94267 28.15531,27.49613 1.65044,20.56095 -15.04294,30.17699 -42.40665,24.42791 z M 497.5,554.87628 c -36.85271,-12.63268 -41.52042,-61.97805 -7.86408,-83.13634 24.33381,-15.29761 58.2055,-0.48189 65.83117,28.79502 8.84808,33.97007 -24.95396,65.65784 -57.96709,54.34132 z"/><path style="fill:#33b046" id="path6561" d="M 471,771.35871 C 325.88938,749.28585 228.3949,606.99186 256.98358,459 295.90444,257.52262 536.28174,177.11293 687.96581,314.8302 788.91986,406.48858 799.61692,571.0689 711.70039,680 c -25.82008,31.99181 -29.87107,33.05851 -49.93043,13.14762 -15.0425,-14.93116 -17.17782,-22.8423 -8.1569,-30.22045 C 692.97951,630.72958 722.51714,551.66879 717.09896,493 700.77962,316.29186 485.95145,238.01202 364.99577,364.69942 c -120.19438,125.89002 -43.57353,339.6936 127.28089,355.16587 19.3395,1.75135 30.79274,13.22351 29.48362,29.53233 -1.63576,20.37816 -17.1214,27.07792 -50.76028,21.96109 z"/></g></g></svg>